<svg width="66" height="63" xmlns="http://www.w3.org/2000/svg" xmlns:xlink="http://www.w3.org/1999/xlink" overflow="hidden"><defs><clipPath id="clip0"><rect x="425" y="370" width="66" height="63"/></clipPath><radialGradient cx="283.27" cy="283.81" r="133.72" gradientUnits="userSpaceOnUse" spreadMethod="pad" id="fill1" gradientTransform="scale(0.279057 0.279057)"><stop offset="0" stop-color="#BAE3F9"/><stop offset="0.2" stop-color="#00AFEC"/><stop offset="0.8" stop-color="#004EA2"/><stop offset="1" stop-color="#00AFEC"/></radialGradient></defs><g clip-path="url(#clip0)" transform="translate(-425 -370)"><path d="M100.913 86.0418C100.916 102.875 87.2727 116.523 70.4397 116.526 53.6067 116.529 39.9585 102.886 39.9554 86.0529 39.9524 69.2199 53.5955 55.5718 70.4285 55.5687 70.4313 55.5687 70.4341 55.5687 70.4369 55.5687 87.2666 55.5701 100.91 69.2121 100.913 86.0418Z" fill="#004EA2" transform="matrix(1.04762 0 0 1 384.209 315.455)"/><path d="M101.795 86.0418C101.802 103.362 87.768 117.408 70.448 117.416 53.1281 117.424 39.0814 103.39 39.0736 86.0697 39.0658 68.7497 53.1002 54.7031 70.4201 54.6953 70.4257 54.6953 70.4313 54.6953 70.4369 54.6953 87.7502 54.6967 101.787 68.7285 101.795 86.0418Z" stroke="#004EA2" stroke-width="0.279057" fill="none" transform="matrix(1.04762 0 0 1 384.209 315.455)"/><path d="M92.5494 86.0418C92.5511 98.2558 82.6509 108.158 70.4369 108.16 58.2228 108.162 48.3205 98.2614 48.3188 86.0474 48.3171 73.8333 58.2172 63.9309 70.4313 63.9293 70.4333 63.9293 70.4349 63.9293 70.4369 63.9293 82.6487 63.9309 92.5477 73.8299 92.5494 86.0418Z" fill="#FFFFFF" transform="matrix(1.04762 0 0 1 384.209 315.455)"/><path d="M60.7927 110.755 60.2345 112.111 62.1879 112.904 61.9619 113.462 57.444 111.623 57.67 111.065 59.6234 111.857 60.1815 110.501ZM61.521 109.053C61.3857 109.417 61.4585 109.826 61.7108 110.122 62.0188 110.423 62.3791 110.666 62.774 110.839L62.534 111.433C62.1461 111.257 61.7853 111.027 61.4624 110.75 61.1538 110.493 60.9322 110.147 60.8289 109.759 60.4837 109.973 60.0788 110.071 59.6736 110.038 59.2514 110.009 58.8356 109.922 58.4374 109.778L58.6746 109.19C59.082 109.339 59.5132 109.413 59.9471 109.407 60.3305 109.369 60.6635 109.127 60.8178 108.774L59.2076 108.121 59.4336 107.563 63.3795 109.159 63.1535 109.717Z" fill="#FFFFFF" transform="matrix(1.04762 0 0 1 384.209 315.455)"/><path d="M68.8379 111.363 72.0219 111.363 72.0219 110.004 72.7028 110.004 72.7028 110.719 73.3921 110.719 73.3921 111.31 72.7112 111.31 72.7112 112.148 72.0303 112.148 72.0303 111.938 68.5644 111.938C68.455 111.947 68.3465 111.912 68.263 111.841 68.1841 111.741 68.1469 111.615 68.1598 111.489L68.1598 109.993 70.9503 109.993 70.9503 110.588 68.8435 110.588ZM72.0219 113.018 68.3691 113.018 68.3691 112.435 72.6945 112.435 72.6945 113.936 69.0555 113.936 69.0555 114.294 72.7028 114.294 72.7028 114.885 68.796 114.885C68.6866 114.894 68.5781 114.859 68.4946 114.787 68.4179 114.693 68.3808 114.571 68.3914 114.45L68.3914 113.367 72.0359 113.367Z" fill="#FFFFFF" transform="matrix(1.04762 0 0 1 384.209 315.455)"/><path d="M79.7267 110.261C79.5528 110.221 79.3879 110.148 79.2411 110.046 79.1708 110.347 79.0145 110.62 78.7919 110.833 78.6077 111.017 78.3897 111.164 78.15 111.266L77.9128 110.677C78.1902 110.548 78.4196 110.335 78.5686 110.069 78.6551 109.87 78.6652 109.646 78.5965 109.441L77.6059 109.84 77.3826 109.282 78.3844 108.877 78.2086 108.442 78.8728 108.163 79.0458 108.598 80.0365 108.199 80.2569 108.757 79.2523 109.17C79.3497 109.367 79.5166 109.521 79.7211 109.603 80.0113 109.691 80.3225 109.684 80.6085 109.583L80.7871 110.027C81.1552 109.92 81.5484 109.941 81.9034 110.085 82.6417 110.385 82.9973 111.226 82.6975 111.965 82.6802 112.007 82.6613 112.049 82.6401 112.089 82.4495 112.455 82.1319 112.739 81.7471 112.887 81.3706 113.048 80.9479 113.063 80.5611 112.929 80.1567 112.798 79.8341 112.49 79.6848 112.092 79.5489 111.772 79.5342 111.414 79.643 111.084 79.7535 110.769 79.9555 110.494 80.2234 110.295 80.0571 110.307 79.89 110.295 79.7267 110.261ZM80.3685 111.14C80.2589 111.356 80.2477 111.608 80.3378 111.832 80.4263 112.056 80.6094 112.228 80.8373 112.304 81.0567 112.392 81.3017 112.392 81.521 112.304 81.7423 112.217 81.9209 112.047 82.0178 111.829 82.1311 111.617 82.1433 111.365 82.0513 111.143 81.9628 110.917 81.7789 110.743 81.549 110.666 81.3274 110.585 81.0835 110.59 80.8653 110.68 80.6482 110.766 80.4709 110.93 80.3685 111.14ZM81.2057 108.417 80.9043 107.666 81.5322 107.412 82.4029 109.564 81.7722 109.817 81.4289 108.98 80.6895 109.279 80.4662 108.721Z" fill="#FFFFFF" transform="matrix(1.04762 0 0 1 384.209 315.455)"/><path d="M49.5159 104.87 48.2239 103.335 48.7234 103.034 49.4992 103.957 50.1243 103.43 49.4741 102.66 49.9178 102.286 50.5596 103.05 51.2796 102.445 50.4201 101.423 50.8889 101.03 52.2116 102.601Z" fill="#FFFFFF" transform="matrix(1.04762 0 0 1 384.209 315.455)"/><path d="M48.6788 102.205 48.1207 101.733C48.2407 101.471 48.3467 101.256 48.4444 101.089 48.4667 101.049 48.4974 100.994 48.542 100.924 48.4416 100.949 48.263 100.98 47.9839 101.022 47.8999 101.036 47.8151 101.045 47.73 101.049L47.2779 100.385 48.7039 100.349 49.3374 98.7891 49.8201 99.5035 49.5801 99.9974 49.3764 100.383C49.5595 100.34 49.7467 100.317 49.9345 100.313L50.3559 100.29 50.8471 101.01 49.1727 100.996Z" fill="#FFFFFF" transform="matrix(1.04762 0 0 1 384.209 315.455)"/><path d="M46.3235 98.1752 46.8816 98.2505C46.8317 98.4004 46.8398 98.5636 46.904 98.7082 47.0463 98.9649 47.37 98.9538 47.8807 98.6719 48.0891 98.5826 48.266 98.4328 48.3886 98.2422 48.4391 98.1336 48.4326 98.0075 48.3718 97.9045 48.2758 97.7558 48.129 97.6467 47.9588 97.5975L47.9086 97.5808 48.1151 97.112C48.2127 97.1388 48.3065 97.1781 48.3941 97.2292 48.5833 97.345 48.7377 97.5099 48.8406 97.7064 49.0103 97.9759 49.0455 98.3089 48.9355 98.6077 48.7926 98.9298 48.5392 99.1901 48.2211 99.3416 47.8352 99.6045 47.3401 99.6467 46.9151 99.4533 46.7111 99.3484 46.5437 99.184 46.4352 98.9817 46.3492 98.8299 46.3012 98.6594 46.2956 98.4849 46.2948 98.3811 46.304 98.2773 46.3235 98.1752Z" fill="#FFFFFF" transform="matrix(1.04762 0 0 1 384.209 315.455)"/><path d="M46.8816 95.34 47.1607 94.9381C47.4813 95.0977 47.7353 95.3656 47.8779 95.6944 48.0255 95.9966 48.0336 96.3482 47.9002 96.6571 47.7442 96.9791 47.4705 97.2289 47.1356 97.3548 46.8066 97.5236 46.4268 97.5643 46.0696 97.4692 45.7724 97.3732 45.5338 97.1488 45.4194 96.858 45.2927 96.6102 45.2757 96.3209 45.3719 96.0599 45.5634 95.6974 45.8871 95.4226 46.2761 95.2925L46.4184 95.2311 47.01 96.5901 47.0268 96.5901C47.4119 96.4227 47.5318 96.1744 47.3895 95.8423 47.2888 95.6174 47.1077 95.4382 46.8816 95.34ZM46.5412 96.7883 46.2342 96.0767 46.2063 96.0767C46.0788 96.1222 45.9661 96.2014 45.8798 96.3055 45.8112 96.4035 45.8025 96.5313 45.8575 96.6376 45.9635 96.8831 46.1896 96.9306 46.5328 96.7827Z" fill="#FFFFFF" transform="matrix(1.04762 0 0 1 384.209 315.455)"/><path d="M43.533 94.98C43.7347 94.8806 43.9437 94.7966 44.158 94.7288L46.0724 94.0786C46.2588 94.0309 46.4366 93.9544 46.5998 93.8526 46.6386 93.8105 46.6495 93.7493 46.6277 93.6963 46.6193 93.6718 46.6082 93.6483 46.5942 93.6266L46.9319 93.3894C47.0201 93.4968 47.087 93.6199 47.13 93.7521 47.2439 93.9854 47.1867 94.2659 46.9905 94.4358 46.8267 94.5449 46.647 94.6278 46.4575 94.6814L44.6297 95.3037C44.383 95.3832 44.1407 95.4764 43.9041 95.5827Z" fill="#FFFFFF" transform="matrix(1.04762 0 0 1 384.209 315.455)"/><path d="M43.0279 93.3419C43.236 93.2546 43.4506 93.1837 43.6697 93.1298L45.6231 92.594C45.8115 92.5583 45.9934 92.4933 46.1617 92.4015 46.2038 92.3627 46.2192 92.3024 46.2007 92.248 46.1927 92.2237 46.1823 92.2006 46.17 92.1782L46.5245 91.9606C46.604 92.0728 46.6626 92.1986 46.6975 92.3317 46.803 92.5714 46.7276 92.8524 46.5161 93.007 46.3431 93.1081 46.1544 93.1798 45.958 93.2191L44.0967 93.7298C43.8449 93.7962 43.5971 93.8763 43.3544 93.9698Z" fill="#FFFFFF" transform="matrix(1.04762 0 0 1 384.209 315.455)"/><path d="M45.4194 89.9263 45.7682 89.597C46.0481 89.8216 46.2373 90.1397 46.3012 90.4927 46.3785 90.8201 46.3082 91.165 46.1087 91.436 45.8854 91.715 45.5639 91.8978 45.2101 91.9466 44.8515 92.0382 44.4717 91.9932 44.1441 91.8211 43.8765 91.6606 43.6934 91.3899 43.6446 91.0816 43.5768 90.8125 43.6242 90.5271 43.7757 90.2946 44.0403 89.9787 44.4179 89.7784 44.8278 89.7365L44.9813 89.7086 45.2603 91.1653 45.2799 91.1653C45.6929 91.0871 45.8659 90.8695 45.7989 90.5151 45.7473 90.2795 45.6125 90.0705 45.4194 89.9263ZM44.7664 91.2657 44.6241 90.5039 44.5934 90.5039C44.4589 90.5201 44.3313 90.5731 44.225 90.6574 44.1363 90.7372 44.0994 90.86 44.1301 90.9755 44.1776 91.2378 44.3869 91.3327 44.7552 91.2546Z" fill="#FFFFFF" transform="matrix(1.04762 0 0 1 384.209 315.455)"/><path d="M43.533 89.3626 43.3125 88.7765C43.4043 88.7096 43.512 88.6683 43.625 88.6565 43.5776 88.5979 43.5051 88.5031 43.4102 88.3775 43.3217 88.2413 43.2701 88.0848 43.2595 87.9226 43.2475 87.7864 43.2726 87.6494 43.332 87.5264 43.3845 87.4158 43.4732 87.3263 43.5832 87.2724 43.6996 87.225 43.8232 87.1976 43.9488 87.1915L45.838 87.038 45.8938 87.7077 44.2194 87.8445C44.131 87.8478 44.0434 87.8649 43.9599 87.8947 43.8837 87.9332 43.8427 88.0175 43.8595 88.1012 43.8943 88.2793 43.9937 88.4383 44.1385 88.5477L45.9663 88.3998 46.0221 89.0779 44.1469 89.2286C43.9362 89.2389 43.7289 89.2841 43.533 89.3626Z" fill="#FFFFFF" transform="matrix(1.04762 0 0 1 384.209 315.455)"/><path d="M43.2344 85.1432 43.7032 85.319 43.7032 85.7543 45.0064 85.7543C45.1214 85.7647 45.2369 85.7446 45.3412 85.6957 45.4043 85.6352 45.4353 85.5484 45.425 85.4613 45.4183 85.3787 45.4012 85.2972 45.3747 85.2186L45.7738 85.1348C45.8477 85.3115 45.8857 85.5012 45.8854 85.6929 45.8888 85.8492 45.8522 86.0038 45.7794 86.1422 45.7222 86.258 45.622 86.3473 45.5003 86.3906 45.3706 86.4266 45.2358 86.4417 45.1013 86.4352L43.706 86.4352 43.706 86.6948 43.2372 86.6948 43.2372 86.4352C43.0332 86.438 42.8289 86.4288 42.626 86.4073L42.4558 85.7153C42.7162 85.746 42.9779 85.7608 43.2399 85.7599Z" fill="#FFFFFF" transform="matrix(1.04762 0 0 1 384.209 315.455)"/><path d="M42.5953 81.8754 42.7655 80.9629C42.806 80.6289 42.9257 80.3094 43.1144 80.0309 43.3513 79.7379 43.7369 79.6092 44.1022 79.7016 44.5362 79.7479 44.8945 80.0616 44.998 80.4857 45.0449 80.7221 45.0401 80.9657 44.9841 81.2001L44.9115 81.5852 46.1896 81.8224 46.0584 82.5201ZM43.2902 81.2838 44.3422 81.4792 44.412 81.1164C44.4324 81.0249 44.4418 80.9311 44.4399 80.8373 44.4296 80.7467 44.3858 80.6629 44.3171 80.6029 44.22 80.5223 44.102 80.4712 43.9767 80.455 43.8405 80.421 43.6965 80.4408 43.5748 80.5109 43.4643 80.582 43.3906 80.6984 43.3739 80.829Z" fill="#FFFFFF" transform="matrix(1.04762 0 0 1 384.209 315.455)"/><path d="M44.1915 79.2244 44.1915 78.5937C44.3193 78.5658 44.4516 78.5658 44.5794 78.5937 44.472 78.4615 44.4 78.3038 44.3701 78.1361 44.3606 78.0602 44.3673 77.9832 44.3897 77.91 44.4148 77.8258 44.4575 77.7476 44.5152 77.6812L45.0399 78.0245C44.9916 78.0747 44.9562 78.1361 44.9366 78.203 44.8978 78.3624 44.9338 78.5309 45.0343 78.6607L46.7979 79.163 46.6137 79.8188 44.9394 79.3416C44.6986 79.2601 44.4458 79.2205 44.1915 79.2244Z" fill="#FFFFFF" transform="matrix(1.04762 0 0 1 384.209 315.455)"/><path d="M44.9673 76.3166C45.075 75.9954 45.3253 75.7418 45.6454 75.6301 46.3414 75.4619 47.0681 75.7501 47.4593 76.3501 47.6091 76.6403 47.6206 76.9827 47.49 77.2822 47.3876 77.5886 47.1515 77.8322 46.8482 77.9435 46.5102 78.0543 46.1433 78.0353 45.8184 77.8905 45.4791 77.78 45.192 77.5487 45.012 77.2403 44.8562 76.9557 44.8398 76.6149 44.9673 76.3166ZM45.4417 76.4868C45.3781 76.6387 45.4291 76.8145 45.5645 76.9082 45.9083 77.1479 46.3082 77.295 46.7254 77.3352 46.8733 77.3304 47.0014 77.2314 47.0435 77.0896 47.144 76.8273 46.9207 76.5909 46.3738 76.3808 46.1578 76.2736 45.9153 76.2321 45.6761 76.2608 45.5656 76.2932 45.4783 76.3777 45.4417 76.4868Z" fill="#FFFFFF" transform="matrix(1.04762 0 0 1 384.209 315.455)"/><path d="M45.7403 72.2759 48.1374 73.5065C48.4123 73.6698 48.712 73.7867 49.0248 73.8525L48.7457 74.3939C48.693 74.3911 48.6414 74.3797 48.5923 74.3604 48.6484 74.5736 48.6216 74.7999 48.5169 74.9939 48.3886 75.2682 48.1382 75.4658 47.8416 75.5269 47.5006 75.5852 47.1501 75.5221 46.8509 75.3483 46.525 75.2012 46.2619 74.9431 46.1087 74.6199 45.9769 74.3367 45.9864 74.008 46.1338 73.7326 46.2049 73.5824 46.3263 73.4621 46.477 73.3921 46.3562 73.3472 46.2387 73.2941 46.1254 73.233L45.3357 72.834ZM46.9765 73.6712C46.8423 73.7127 46.7287 73.8034 46.6584 73.9251 46.5281 74.1818 46.7142 74.4377 47.2165 74.6925 47.3848 74.7966 47.5771 74.856 47.7746 74.8655 47.9167 74.8429 48.0361 74.7461 48.0872 74.6116 48.1474 74.4933 48.1474 74.3532 48.0872 74.2348Z" fill="#FFFFFF" transform="matrix(1.04762 0 0 1 384.209 315.455)"/><path d="M47.1607 72.0415 47.423 71.4108 48.8183 72.3233C48.9352 72.4126 49.0692 72.4773 49.2118 72.5131 49.3069 72.5167 49.3951 72.4642 49.4378 72.3791 49.4844 72.3035 49.5104 72.2167 49.5132 72.128 49.521 72.0462 49.5023 71.9642 49.4601 71.8936L47.9309 70.889 48.1737 70.2722 49.8313 71.3606C49.9711 71.4585 50.141 71.504 50.3113 71.4889L50.2778 72.047C50.1751 72.0878 50.0626 72.0987 49.9541 72.0777 49.9982 72.3275 49.9387 72.5845 49.7894 72.7893 49.6982 72.9325 49.5723 73.0505 49.4239 73.1326 49.3014 73.2051 49.1554 73.2283 49.0164 73.1968 48.851 73.1418 48.6947 73.0617 48.5532 72.9596Z" fill="#FFFFFF" transform="matrix(1.04762 0 0 1 384.209 315.455)"/><path d="M50.035 68.3691 50.1745 68.9049C50.0166 68.9138 49.8678 68.9827 49.7587 69.0974 49.5745 69.3262 49.7085 69.6248 50.1606 69.9876 50.3227 70.1472 50.5286 70.2549 50.7522 70.2974 50.8722 70.3024 50.9869 70.248 51.0591 70.1522 51.159 70.0071 51.2037 69.8308 51.1847 69.6555L51.1847 69.5997 51.6954 69.6137C51.7384 69.9404 51.6362 70.2697 51.4163 70.515 51.2316 70.7731 50.9383 70.9316 50.621 70.9448 50.2683 70.9325 49.9315 70.796 49.6694 70.5597 49.2813 70.3024 49.0549 69.8615 49.0722 69.396 49.0909 69.1674 49.1797 68.9501 49.3262 68.7737 49.4328 68.6353 49.5718 68.5251 49.7308 68.4528 49.8296 68.4162 49.9315 68.3883 50.035 68.3691Z" fill="#FFFFFF" transform="matrix(1.04762 0 0 1 384.209 315.455)"/><path d="M51.1205 66.8705 51.3438 67.317 51.0452 67.6351 51.9968 68.5281C52.0718 68.6132 52.1681 68.6769 52.2758 68.7123 52.3643 68.7117 52.4469 68.6693 52.4991 68.5979 52.5501 68.5326 52.5931 68.4612 52.6274 68.3858L52.9763 68.5951C52.9157 68.7729 52.8208 68.9367 52.6972 69.0779 52.5926 69.1945 52.46 69.283 52.3121 69.3346 52.1927 69.3809 52.0604 69.3809 51.941 69.3346 51.8226 69.2713 51.7144 69.1903 51.62 69.0946L50.5959 68.1319 50.4173 68.3216 50.0769 68.0007 50.2303 67.811C50.0788 67.6734 49.9351 67.5272 49.8006 67.3728L50.1494 66.7533C50.3202 66.9495 50.5019 67.1359 50.6936 67.3114Z" fill="#FFFFFF" transform="matrix(1.04762 0 0 1 384.209 315.455)"/><path d="M90.6937 66.5105 92.0415 68.0035 91.5532 68.3188 90.7439 67.4231 90.1383 67.9812 90.8137 68.7318 90.3839 69.1197 89.717 68.3691 89.0193 68.9997 89.9123 69.9904 89.4602 70.4006 88.0817 68.8742Z" fill="#FFFFFF" transform="matrix(1.04762 0 0 1 384.209 315.455)"/><path d="M91.6313 69.1421 92.2089 69.5941C92.0973 69.8732 91.9941 70.0825 91.902 70.2527L91.8099 70.4229C91.9084 70.395 92.0898 70.356 92.3541 70.3057 92.4573 70.289 92.5438 70.2778 92.6052 70.2722L93.0796 70.9196 91.6564 71.0034 91.0788 72.5856 90.5681 71.888 90.7913 71.3857C90.8527 71.2657 90.9141 71.1373 90.9839 70.995 90.8011 71.0424 90.6141 71.0715 90.4258 71.0815L90.0044 71.1178 89.4909 70.4146 91.1653 70.3699Z" fill="#FFFFFF" transform="matrix(1.04762 0 0 1 384.209 315.455)"/><path d="M94.1316 73.0907 93.5735 73.0377C93.6173 72.8867 93.6045 72.7249 93.5373 72.5828 93.3838 72.3289 93.0601 72.3512 92.5606 72.6498 92.3549 72.7469 92.1827 72.9035 92.0666 73.0991 92.0195 73.2085 92.0301 73.3341 92.0945 73.434 92.1958 73.5796 92.3465 73.6837 92.5187 73.727L92.5689 73.7437 92.3792 74.2181C92.2823 74.1927 92.1886 74.1562 92.1001 74.1093 91.9076 74.0007 91.7482 73.8414 91.6397 73.6488 91.4613 73.3848 91.415 73.053 91.5141 72.7503 91.6461 72.4224 91.8917 72.1528 92.2062 71.9912 92.5832 71.7141 93.0776 71.655 93.5093 71.835 93.7184 71.931 93.8922 72.09 94.0061 72.2898 94.0984 72.438 94.152 72.6068 94.1623 72.781 94.1629 72.8851 94.1526 72.9889 94.1316 73.0907Z" fill="#FFFFFF" transform="matrix(1.04762 0 0 1 384.209 315.455)"/><path d="M93.6572 75.9511 93.4033 76.3585C93.071 76.2131 92.8025 75.9524 92.6471 75.6246 92.4891 75.3268 92.4699 74.9749 92.594 74.6618 92.7425 74.3362 93.0115 74.0811 93.3447 73.9502 93.6665 73.768 94.0454 73.7141 94.4051 73.7995 94.7062 73.8877 94.9535 74.1043 95.0804 74.3911 95.2133 74.6359 95.2406 74.9241 95.1558 75.1892 94.9783 75.559 94.6641 75.845 94.2795 75.9873L94.1372 76.0543 93.4954 74.7065 93.4787 74.7065C93.1067 74.8926 92.995 75.1465 93.1438 75.4683 93.2504 75.6865 93.4329 75.8581 93.6572 75.9511ZM93.9363 74.4888 94.274 75.1976 94.3019 75.1837C94.4277 75.134 94.5377 75.0511 94.62 74.9437 94.6817 74.8404 94.6817 74.712 94.62 74.6088 94.5056 74.3632 94.2768 74.3297 93.9391 74.4832Z" fill="#FFFFFF" transform="matrix(1.04762 0 0 1 384.209 315.455)"/><path d="M97.0422 76.1827C96.8432 76.2918 96.6362 76.385 96.4227 76.4617L94.5251 77.1789C94.3409 77.2333 94.166 77.3151 94.0061 77.4217 93.9681 77.4658 93.9592 77.528 93.9837 77.5808 93.9924 77.6048 94.0047 77.6274 94.02 77.6477L93.688 77.8989C93.5978 77.7939 93.5269 77.674 93.4787 77.5445 93.355 77.3142 93.4033 77.0293 93.5959 76.8524 93.7563 76.7386 93.9332 76.6501 94.1205 76.5901L95.9316 75.9036C96.1766 75.8143 96.416 75.7111 96.6487 75.5939Z" fill="#FFFFFF" transform="matrix(1.04762 0 0 1 384.209 315.455)"/><path d="M97.5864 77.8152C97.3816 77.9092 97.1697 77.9873 96.9529 78.0496L95.0163 78.6495C94.8279 78.6925 94.6473 78.7642 94.4805 78.8616 94.4414 78.9035 94.4294 78.9643 94.4498 79.0179 94.4581 79.0424 94.4693 79.0659 94.4833 79.0877L94.1372 79.3165C94.0527 79.2068 93.9885 79.0832 93.9475 78.9509 93.8386 78.7129 93.9053 78.4313 94.1093 78.2672 94.2759 78.1626 94.4576 78.0844 94.6479 78.0356L96.4953 77.4635C96.745 77.3843 96.99 77.2911 97.2292 77.1845Z" fill="#FFFFFF" transform="matrix(1.04762 0 0 1 384.209 315.455)"/><path d="M95.3065 81.3118 94.9688 81.655C94.6842 81.4376 94.4863 81.1259 94.4107 80.776 94.3228 80.4503 94.382 80.1026 94.5726 79.8244 94.7849 79.5378 95.1 79.345 95.4516 79.2858 95.8065 79.1806 96.188 79.2124 96.5204 79.3751 96.7947 79.5272 96.9875 79.7928 97.0478 80.1006 97.1231 80.3688 97.086 80.656 96.9445 80.896 96.6895 81.2174 96.3189 81.4264 95.912 81.4792L95.7586 81.5127 95.4376 80.0588 95.4181 80.0588C95.0107 80.1481 94.8432 80.3713 94.9242 80.7229 94.9763 80.959 95.1123 81.168 95.3065 81.3118ZM95.912 79.95 96.0851 80.7174 96.113 80.7174C96.248 80.6981 96.3747 80.6412 96.4785 80.5527 96.5628 80.4679 96.5946 80.344 96.5622 80.229 96.5008 79.9667 96.2832 79.8746 95.9232 79.95Z" fill="#FFFFFF" transform="matrix(1.04762 0 0 1 384.209 315.455)"/><path d="M97.2208 81.8113 97.4608 82.3917C97.3718 82.462 97.266 82.5081 97.1538 82.5257 97.2041 82.5787 97.2794 82.6708 97.3799 82.8047 97.4708 82.9398 97.5275 83.0949 97.5445 83.2568 97.5624 83.3935 97.542 83.5328 97.4859 83.6586 97.4385 83.7719 97.3525 83.8648 97.2431 83.9209 97.1284 83.9728 97.0057 84.0049 96.8804 84.0158L94.9967 84.2307 94.9186 83.5637 96.5929 83.3712C96.6817 83.3673 96.7687 83.3466 96.8497 83.3098 96.9256 83.2699 96.9646 83.1837 96.9445 83.1005 96.9085 82.9236 96.8095 82.7659 96.6655 82.6568L94.8432 82.8661 94.7651 82.1908 96.6348 81.9759C96.8379 81.9539 97.0358 81.898 97.2208 81.8113Z" fill="#FFFFFF" transform="matrix(1.04762 0 0 1 384.209 315.455)"/><path d="M97.6478 86.0111 97.1762 85.852 97.1762 85.4167 95.873 85.453C95.758 85.4457 95.6433 85.4697 95.5409 85.5227 95.4801 85.5855 95.4521 85.6734 95.4655 85.7599 95.4736 85.8428 95.4923 85.9246 95.5213 86.0027L95.1251 86.1004C95.0464 85.9243 95.0017 85.7348 94.9939 85.5423 94.9861 85.3863 95.0179 85.2308 95.086 85.0902 95.1416 84.9705 95.2417 84.8775 95.3651 84.8307 95.494 84.7896 95.6288 84.7698 95.7641 84.7721L97.1594 84.733 97.1594 84.4763 97.6282 84.4623 97.6282 84.719C97.9073 84.719 98.1138 84.719 98.2422 84.719L98.4347 85.4055C98.173 85.3849 97.9104 85.3785 97.6478 85.386Z" fill="#FFFFFF" transform="matrix(1.04762 0 0 1 384.209 315.455)"/><path d="M98.3984 89.2816 98.2589 90.1997C98.2324 90.5335 98.1264 90.8561 97.9492 91.1402 97.7217 91.4424 97.3394 91.585 96.9697 91.5057 96.5352 91.4714 96.1685 91.1692 96.0516 90.7495 96.0011 90.5139 96.0011 90.2706 96.0516 90.0351L96.1102 89.6472 94.8265 89.4519 94.9353 88.7514ZM97.7231 89.8956 96.6627 89.7365 96.6069 90.1021C96.5893 90.1939 96.5826 90.2876 96.5873 90.3811 96.6024 90.4704 96.649 90.5516 96.7185 90.6099 96.8176 90.6872 96.9367 90.7347 97.0618 90.7467 97.1993 90.7757 97.3428 90.752 97.4636 90.6797 97.5713 90.6035 97.6405 90.4844 97.6534 90.3532Z" fill="#FFFFFF" transform="matrix(1.04762 0 0 1 384.209 315.455)"/><path d="M96.8915 91.9857 96.8915 92.6136C96.7651 92.6476 96.6323 92.6526 96.5036 92.6275 96.6183 92.7567 96.697 92.9133 96.7325 93.0824 96.7428 93.158 96.738 93.2348 96.7185 93.3084 96.6953 93.3935 96.6557 93.4734 96.6013 93.5428L96.0767 93.2052C96.123 93.1544 96.1565 93.093 96.1744 93.0266 96.2064 92.865 96.1657 92.6976 96.0627 92.5689L94.2795 92.1252 94.4442 91.4666 96.1185 91.8852C96.3686 91.9631 96.6301 91.9971 96.8915 91.9857Z" fill="#FFFFFF" transform="matrix(1.04762 0 0 1 384.209 315.455)"/><path d="M96.2106 94.927C96.1124 95.2518 95.8691 95.5124 95.552 95.633 95.2286 95.7443 94.8759 95.7354 94.5586 95.6079 94.2115 95.508 93.9131 95.2836 93.7214 94.9772 93.5627 94.6914 93.54 94.3493 93.66 94.0451 93.7527 93.7351 93.9818 93.4845 94.2823 93.3642 94.6147 93.2415 94.9811 93.2476 95.3093 93.381 95.6559 93.4773 95.9544 93.6991 96.1464 94.0033 96.3086 94.2848 96.3323 94.6256 96.2106 94.927ZM95.7279 94.7707C95.7887 94.6178 95.7323 94.4436 95.5939 94.3549 95.434 94.2419 95.2568 94.1551 95.0693 94.0982 94.8617 94.0142 94.6401 93.9698 94.4163 93.967 94.2689 93.9762 94.1445 94.0803 94.1093 94.2237 94.0172 94.5028 94.2488 94.7177 94.8014 94.9074 95.0213 95.0079 95.2657 95.0419 95.5046 95.0051 95.6087 94.9652 95.6874 94.8781 95.7167 94.7707Z" fill="#FFFFFF" transform="matrix(1.04762 0 0 1 384.209 315.455)"/><path d="M95.5827 98.9817 93.1382 97.8292C92.8575 97.674 92.5527 97.5666 92.2368 97.511L92.4964 96.9529C92.5494 96.9549 92.6021 96.9644 92.6526 96.9808 92.5879 96.7699 92.6069 96.5419 92.7057 96.3446 92.824 96.0644 93.0684 95.8573 93.3642 95.7865 93.703 95.7173 94.0555 95.7686 94.3605 95.9316 94.69 96.0689 94.9607 96.3178 95.1251 96.6348 95.2657 96.9138 95.2657 97.2431 95.1251 97.5222 95.0601 97.6762 94.9423 97.8018 94.793 97.8766 94.9169 97.9148 95.0372 97.9634 95.153 98.0217L95.9623 98.404ZM94.2907 97.6394C94.4238 97.5934 94.5343 97.4985 94.6005 97.3743 94.7252 97.112 94.5391 96.8617 94.0424 96.6236 93.8718 96.5274 93.6801 96.4749 93.4842 96.4702 93.3416 96.4967 93.2242 96.598 93.1773 96.7353 93.1176 96.8539 93.1176 96.9934 93.1773 97.112Z" fill="#FFFFFF" transform="matrix(1.04762 0 0 1 384.209 315.455)"/><path d="M94.1623 99.2663 93.9196 99.9053 92.4964 99.0375C92.3769 98.9535 92.2424 98.8938 92.1001 98.8617 92.0038 98.86 91.9159 98.9161 91.8769 99.004 91.8331 99.0816 91.8102 99.1689 91.8099 99.2579 91.8054 99.3405 91.8269 99.4226 91.8713 99.4923L93.4312 100.444 93.2108 101.069 91.5169 100.037C91.3743 99.9408 91.2013 99.9012 91.0313 99.9249L91.0481 99.3668C91.1488 99.3224 91.2601 99.3079 91.369 99.3249 91.3185 99.0765 91.3695 98.8181 91.5113 98.6077 91.5984 98.4621 91.72 98.3404 91.8657 98.2533 91.9857 98.1766 92.1305 98.1487 92.2703 98.1752 92.4375 98.2251 92.5963 98.2994 92.7419 98.3956Z" fill="#FFFFFF" transform="matrix(1.04762 0 0 1 384.209 315.455)"/><path d="M91.4136 103.039 91.2546 102.506C91.412 102.492 91.5579 102.419 91.662 102.3 91.8481 102.065 91.7038 101.773 91.2295 101.423 91.0615 101.273 90.8527 101.176 90.6295 101.144 90.5098 101.143 90.397 101.2 90.3281 101.298 90.2321 101.447 90.1925 101.625 90.2165 101.8L90.2165 101.853 89.7058 101.853C89.6938 101.752 89.6938 101.65 89.7058 101.549 89.7348 101.329 89.8227 101.121 89.9597 100.946 90.1369 100.681 90.426 100.513 90.7439 100.489 91.098 100.489 91.4401 100.616 91.7094 100.846 92.1079 101.09 92.3501 101.525 92.3485 101.993 92.337 102.222 92.2553 102.442 92.1141 102.623 92.0114 102.764 91.8752 102.878 91.7178 102.953 91.6201 102.994 91.518 103.023 91.4136 103.039Z" fill="#FFFFFF" transform="matrix(1.04762 0 0 1 384.209 315.455)"/><path d="M90.3727 104.566 90.1355 104.127 90.4146 103.801 89.4351 102.939C89.3595 102.857 89.2629 102.797 89.1561 102.766 89.0687 102.769 88.9881 102.814 88.9384 102.886 88.8901 102.954 88.8491 103.027 88.8156 103.103L88.4612 102.902C88.5212 102.722 88.6161 102.555 88.7403 102.411 88.8388 102.288 88.9674 102.191 89.1142 102.132 89.2331 102.083 89.3665 102.083 89.4853 102.132 89.6076 102.19 89.7197 102.268 89.8174 102.361L90.8723 103.288 91.0425 103.095 91.3941 103.402 91.2239 103.597C91.3796 103.729 91.5269 103.871 91.6648 104.021L91.3355 104.647C91.1608 104.45 90.9744 104.263 90.7774 104.088Z" fill="#FFFFFF" transform="matrix(1.04762 0 0 1 384.209 315.455)"/><path d="M60.4355 64.4902 59.8773 63.2288 57.9574 64.0883 57.7119 63.5302 62.1768 61.5322 62.4224 62.0903 60.4913 62.9554 61.0494 64.2139ZM59.749 59.562C60.4489 59.7428 60.8694 60.457 60.6886 61.1566 60.6646 61.25 60.6302 61.3404 60.5862 61.4261 60.414 61.7735 60.1229 62.0479 59.7657 62.1991 59.4163 62.3598 59.022 62.3953 58.6495 62.2996 58.2633 62.2061 57.9443 61.9346 57.79 61.5684 57.6192 61.2079 57.6284 60.7879 57.8151 60.4355 58.1865 59.7283 58.9939 59.3672 59.7685 59.562ZM58.4095 60.6448C58.3068 60.8451 58.3007 61.0812 58.3928 61.2866 58.4809 61.4934 58.6623 61.6455 58.8811 61.6968 59.0915 61.7638 59.3195 61.7498 59.5202 61.6577 59.7197 61.569 59.879 61.4085 59.9666 61.2085 60.0746 61.0123 60.0841 60.7765 59.9918 60.5722 59.9013 60.3646 59.7183 60.2114 59.4978 60.1592 59.2905 60.0959 59.067 60.1106 58.87 60.2011 58.6676 60.2878 58.5038 60.4458 58.4095 60.6448Z" fill="#FFFFFF" transform="matrix(1.04762 0 0 1 384.209 315.455)"/><path d="M66.4743 57.6477C66.5125 58.0696 66.7793 58.4363 67.1691 58.6021 67.6153 58.7647 68.095 58.8127 68.5644 58.7416L68.6593 59.3583C68.2167 59.4102 67.7685 59.3932 67.331 59.3081 66.9266 59.2414 66.5546 59.0455 66.2706 58.75 66.0685 59.1091 65.7646 59.4004 65.3971 59.5871 65.0103 59.7936 64.5959 59.9429 64.1665 60.0308L64.0744 59.4197C64.5404 59.3432 64.9796 59.1512 65.3525 58.8616 65.6742 58.5873 65.8207 58.1592 65.7348 57.7453ZM66.4966 62.6093 66.2566 61.0326 64.1832 61.3508 64.0939 60.7536 68.9272 60.0197 69.0193 60.6141 66.9263 60.9322 67.1663 62.5089Z" fill="#FFFFFF" transform="matrix(1.04762 0 0 1 384.209 315.455)"/><path d="M72.8507 58.0635C72.7419 58.9899 72.7642 59.6736 72.9149 60.1201 72.9872 60.4025 73.197 60.6291 73.473 60.7229L73.3921 61.4122C73.1705 61.37 72.9649 61.2679 72.7977 61.1164 72.5309 60.8616 72.3504 60.5298 72.2814 60.1676 72.1182 60.4988 71.8609 60.7742 71.5419 60.9601 71.3391 61.0695 71.1108 61.1225 70.8806 61.1136L70.9587 60.4383C71.2489 60.4011 71.5026 60.2239 71.6368 59.9639 71.8843 59.564 72.0638 58.9015 72.1754 57.977L71.302 57.8765 71.3717 57.2877 73.7772 57.5668 73.7074 58.1556ZM73.473 58.9007 74.1483 58.9788 74.3074 57.6226 74.9464 57.6979 74.3883 62.5591 73.7493 62.4837 74.0814 59.6011 73.4061 59.5229ZM75.3706 57.7509 76.0208 57.8263 75.4627 62.6819 74.8153 62.6065Z" fill="#FFFFFF" transform="matrix(1.04762 0 0 1 384.209 315.455)"/><path d="M82.1461 63.1646 81.6355 64.4232C81.6 64.544 81.5163 64.645 81.4038 64.7023 81.3023 64.7385 81.1904 64.7313 81.0941 64.6827L77.6422 63.2874C77.5364 63.2562 77.4485 63.1825 77.3994 63.0837 77.365 62.9657 77.377 62.839 77.4329 62.7293L77.9435 61.4708 79.7379 62.1991 79.9109 61.7721 77.9575 60.9768 78.1835 60.4187 82.7154 62.2577 82.4894 62.8158 80.536 62.0205 80.363 62.4475ZM81.309 63.466 78.3342 62.2577 78.0998 62.8326 81.0745 64.0381ZM82.2912 61.0606 82.9191 61.3145 82.7015 61.8475 78.4598 60.1257 78.6747 59.5927 79.2858 59.8411 79.4672 59.3974 78.856 59.149 79.0765 58.6076 83.3182 60.3294 83.1005 60.8708 82.4726 60.6169ZM80.0895 59.6457 79.9081 60.0894 81.6941 60.815 81.8754 60.3713Z" fill="#FFFFFF" transform="matrix(1.04762 0 0 1 384.209 315.455)"/><path d="M86.8064 65.2408C86.8047 65.523 86.5751 65.7501 86.2929 65.7487 86.0108 65.747 85.7836 65.5174 85.785 65.2353 85.7867 64.9542 86.0147 64.7274 86.2957 64.7274 86.5762 64.7257 86.805 64.952 86.8064 65.2325 86.8064 65.2353 86.8064 65.238 86.8064 65.2408Z" fill="#FFFFFF" transform="matrix(1.04762 0 0 1 384.209 315.455)"/><path d="M54.7399 65.2408C54.7399 65.5244 54.51 65.7543 54.2264 65.7543 53.9429 65.7543 53.713 65.5244 53.713 65.2408 53.713 64.9573 53.9429 64.7274 54.2264 64.7274 54.5086 64.7257 54.7382 64.9531 54.7399 65.2353 54.7399 65.2372 54.7399 65.2389 54.7399 65.2408Z" fill="#FFFFFF" transform="matrix(1.04762 0 0 1 384.209 315.455)"/><path d="M54.7399 107.482C54.7416 107.765 54.5127 107.996 54.2292 107.998 53.9457 108 53.7146 107.771 53.713 107.487 53.7116 107.204 53.9401 106.973 54.2236 106.971 54.2245 106.971 54.2256 106.971 54.2264 106.971 54.5088 106.971 54.7385 107.199 54.7399 107.482Z" fill="#FFFFFF" transform="matrix(1.04762 0 0 1 384.209 315.455)"/><path d="M86.8064 107.482C86.8064 107.764 86.5778 107.992 86.2957 107.992 86.0136 107.992 85.785 107.764 85.785 107.482 85.785 107.2 86.0136 106.971 86.2957 106.971 86.5778 106.971 86.8064 107.2 86.8064 107.482Z" fill="#FFFFFF" transform="matrix(1.04762 0 0 1 384.209 315.455)"/><path d="M91.5978 86.0418C91.5995 97.7301 82.1252 107.207 70.4369 107.208 58.7486 107.21 49.272 97.7357 49.2704 86.0474 49.2687 74.359 58.743 64.8825 70.4313 64.8809 70.4321 64.8809 70.4333 64.8809 70.4341 64.8809 82.121 64.8792 91.5961 74.3521 91.5978 86.039 91.5978 86.0398 91.5978 86.0409 91.5978 86.0418Z" fill="url(#fill1)" transform="matrix(1.04762 0 0 1 384.209 315.455)"/><path d="M75.1809 73.8302 61.7861 94.2963 68.743 94.327 72.2117 86.7924C76.2106 86.1534 83.0363 84.56 86.7562 80.8429 92.022 75.5771 87.2082 72.2201 82.9805 71.5922 78.8951 70.9866 71.6954 71.3131 64.9367 75.0162 57.0589 79.336 53.1158 86.0613 54.4301 91.8434 55.8924 98.2617 64.6213 100.092 73.5539 97.0283 76.4868 96.0181 79.057 94.1205 80.9155 92.2648L79.0653 92.2648C79.0653 92.2648 73.6712 97.3631 66.4157 96.2078 59.4616 95.0916 56.8719 90.4062 59.3081 84.6297 62.3275 77.4691 70.7048 73.113 77.1064 72.3708 79.6179 72.0917 84.5628 72.3289 85.4195 74.6032 86.6473 77.8821 81.309 81.6522 74.2293 82.4168L77.0003 76.3948Z" fill="#FFFFFF" transform="matrix(1.04762 0 0 1 384.209 315.455)"/></g></svg>